<?xml version="1.0" encoding="UTF-8" standalone="no"?>
<svg
   xmlns:dc="http://purl.org/dc/elements/1.1/"
   xmlns:cc="http://creativecommons.org/ns#"
   xmlns:rdf="http://www.w3.org/1999/02/22-rdf-syntax-ns#"
   xmlns:svg="http://www.w3.org/2000/svg"
   xmlns="http://www.w3.org/2000/svg"
   xmlns:sodipodi="http://sodipodi.sourceforge.net/DTD/sodipodi-0.dtd"
   xmlns:inkscape="http://www.inkscape.org/namespaces/inkscape"
   version="1.1"
   id="Capa_1"
   x="0px"
   y="0px"
   viewBox="0 0 380.699 380.699"
   style="enable-background:new 0 0 380.699 380.699;"
   xml:space="preserve"
   sodipodi:docname="blue_hat.svg"
   inkscape:version="1.0.1 (c497b03c, 2020-09-10)"><metadata
   id="metadata63"><rdf:RDF><cc:Work
       rdf:about=""><dc:format>image/svg+xml</dc:format><dc:type
         rdf:resource="http://purl.org/dc/dcmitype/StillImage" /><dc:title /></cc:Work></rdf:RDF></metadata><defs
   id="defs61" /><sodipodi:namedview
   pagecolor="#ffffff"
   bordercolor="#666666"
   borderopacity="1"
   objecttolerance="10"
   gridtolerance="10"
   guidetolerance="10"
   inkscape:pageopacity="0"
   inkscape:pageshadow="2"
   inkscape:window-width="1440"
   inkscape:window-height="872"
   id="namedview59"
   showgrid="false"
   inkscape:zoom="1.5578061"
   inkscape:cx="214.31946"
   inkscape:cy="202.6712"
   inkscape:window-x="0"
   inkscape:window-y="0"
   inkscape:window-maximized="0"
   inkscape:current-layer="g26"
   inkscape:document-rotation="0" />
<g
   id="g26">
	<path
   style="fill:#80e5ff"
   d="M177.487,236.947c3.446,3.432,5.924,7.691,7.227,12.423h146.063v-24.814H184.649   C183.365,229.165,180.947,233.463,177.487,236.947z"
   id="path10" />
	<path
   style="fill:#80e5ff"
   d="M63.757,202.839c5.036-8.724,14.427-14.143,24.509-14.143c2.464,0,4.917,0.327,7.29,0.964   c3.262-12.028,14.327-20.945,27.304-20.945c12.978,0,24.044,8.917,27.305,20.945c2.374-0.637,4.827-0.964,7.291-0.964   c10.082,0,19.474,5.42,24.51,14.144c2.135,3.697,3.312,7.697,3.642,11.716h145.171v-18.693   c0-77.432-62.996-140.428-140.428-140.428S49.922,118.431,49.922,195.862v18.693h10.162   C60.431,210.457,61.655,206.478,63.757,202.839z"
   id="path12" />
	<path
   style="fill:#80e5ff"
   d="M122.859,248.94c6.604,0,11.979-5.373,11.979-11.979c0-6.605-5.374-11.979-11.979-11.979   c-6.604,0-11.977,5.374-11.977,11.979C110.883,243.567,116.256,248.94,122.859,248.94z"
   id="path14" />
	<path
   style="fill:#80e5ff"
   d="M68.218,236.962c-3.438-3.428-5.91-7.683-7.211-12.406H49.922v24.814h11.083   C62.306,244.646,64.778,240.391,68.218,236.962z"
   id="path16" />
	<path
   style="fill:#80e5ff"
   d="M185.637,259.37c-0.347,4.1-1.571,8.079-3.674,11.718c-5.034,8.722-14.425,14.14-24.508,14.14   c-2.463,0-4.917-0.327-7.291-0.964c-3.261,12.029-14.325,20.946-27.301,20.946h-0.005c-12.978,0-24.043-8.917-27.304-20.946   c-2.373,0.637-4.826,0.964-7.29,0.964c-10.082,0-19.473-5.419-24.508-14.142c-2.102-3.641-3.325-7.619-3.673-11.716H47.096   l-36.446,38.993c2.582,3.146,13.708,10.256,47.962,16.689c35.075,6.586,81.86,10.213,131.738,10.213   c49.877,0,96.663-3.627,131.738-10.213c34.254-6.433,45.38-13.543,47.962-16.689l-36.446-38.993H185.637z"
   id="path18" />
	<path
   style="fill:#80e5ff"
   d="M78.872,241.254c-4.945,2.955-8.15,7.939-8.794,13.672c-0.437,3.893,0.372,7.752,2.339,11.161   c3.255,5.638,9.327,9.141,15.848,9.141c3.093,0,6.165-0.802,8.884-2.317c0.757-0.423,1.597-0.634,2.436-0.634   c0.863,0,1.727,0.224,2.5,0.67c1.524,0.88,2.474,2.496,2.499,4.256c0.147,9.93,8.346,18.008,18.276,18.008h0.004   c9.929,0,18.126-8.078,18.273-18.008c0.025-1.76,0.975-3.376,2.499-4.256c1.524-0.881,3.398-0.895,4.936-0.036   c2.719,1.516,5.791,2.317,8.884,2.317c6.521,0,12.594-3.502,15.849-9.141c1.967-3.405,2.775-7.264,2.338-11.159   c-0.645-5.735-3.85-10.72-8.795-13.674c-1.511-0.902-2.436-2.532-2.436-4.292c0-1.76,0.926-3.391,2.436-4.293   c8.525-5.092,11.423-16.23,6.457-24.829c-3.256-5.64-9.329-9.144-15.85-9.144c-3.093,0-6.165,0.802-8.884,2.318   c-1.538,0.855-3.411,0.842-4.936-0.037c-1.524-0.88-2.474-2.496-2.499-4.256c-0.148-9.929-8.347-18.007-18.277-18.007   c-9.93,0-18.128,8.078-18.276,18.007c-0.025,1.76-0.976,3.376-2.499,4.256c-1.525,0.879-3.398,0.893-4.936,0.036   c-2.719-1.516-5.79-2.317-8.883-2.317c-6.521,0-12.593,3.503-15.849,9.143c-1.967,3.407-2.775,7.266-2.338,11.158   c0.645,5.735,3.849,10.719,8.793,13.673c1.511,0.902,2.436,2.532,2.436,4.292C81.308,238.722,80.383,240.352,78.872,241.254z    M122.859,214.983c12.119,0,21.979,9.859,21.979,21.979c0,12.119-9.859,21.978-21.979,21.978c-12.118,0-21.977-9.859-21.977-21.978   C100.883,224.843,110.741,214.983,122.859,214.983z"
   id="path20" />
	<path
   style="fill:#000000"
   d="M340.777,252.401v-56.539c0-82.946-67.481-150.428-150.428-150.428S39.922,112.916,39.922,195.862   v56.539L1.348,293.671C0.481,294.597,0,295.817,0,297.085c0,6.416,5.557,11.929,16.987,16.853   c9.481,4.084,22.864,7.766,39.778,10.941c35.665,6.696,83.107,10.385,133.584,10.385s97.918-3.689,133.584-10.385   c16.914-3.176,30.297-6.857,39.777-10.941c11.432-4.925,16.988-10.438,16.988-16.853c0-1.268-0.481-2.488-1.348-3.414   L340.777,252.401z M49.922,195.862c0-77.432,62.996-140.428,140.428-140.428s140.428,62.996,140.428,140.428v18.693H185.606   c-0.33-4.019-1.507-8.019-3.642-11.716c-5.036-8.724-14.428-14.144-24.51-14.144c-2.464,0-4.917,0.327-7.291,0.964   c-3.261-12.028-14.327-20.945-27.305-20.945c-12.977,0-24.042,8.917-27.304,20.945c-2.373-0.637-4.826-0.964-7.29-0.964   c-10.082,0-19.473,5.419-24.509,14.143c-2.102,3.64-3.326,7.618-3.673,11.717H49.922V195.862z M330.777,224.556v24.814H184.714   c-1.303-4.731-3.78-8.991-7.227-12.423c3.46-3.484,5.878-7.782,7.162-12.392H330.777z M78.872,232.67   c-4.944-2.954-8.148-7.938-8.793-13.673c-0.438-3.893,0.371-7.751,2.338-11.158c3.256-5.64,9.328-9.143,15.849-9.143   c3.093,0,6.164,0.802,8.883,2.317c1.537,0.857,3.41,0.843,4.936-0.036c1.523-0.88,2.474-2.496,2.499-4.256   c0.148-9.929,8.347-18.007,18.276-18.007c9.931,0,18.13,8.078,18.277,18.007c0.025,1.76,0.975,3.376,2.499,4.256   c1.524,0.879,3.398,0.893,4.936,0.037c2.719-1.517,5.791-2.318,8.884-2.318c6.521,0,12.594,3.504,15.85,9.144   c4.966,8.599,2.068,19.737-6.457,24.829c-1.511,0.902-2.436,2.533-2.436,4.293c0,1.76,0.925,3.39,2.436,4.292   c4.945,2.954,8.15,7.939,8.795,13.674c0.438,3.896-0.371,7.754-2.338,11.159c-3.255,5.639-9.327,9.141-15.849,9.141   c-3.093,0-6.165-0.802-8.884-2.317c-1.538-0.858-3.411-0.845-4.936,0.036c-1.524,0.88-2.474,2.496-2.499,4.256   c-0.148,9.93-8.345,18.008-18.273,18.008h-0.004c-9.931,0-18.129-8.078-18.276-18.008c-0.025-1.76-0.975-3.376-2.499-4.256   c-0.773-0.446-1.637-0.67-2.5-0.67c-0.839,0-1.679,0.211-2.436,0.634c-2.719,1.516-5.791,2.317-8.884,2.317   c-6.521,0-12.593-3.503-15.848-9.141c-1.967-3.409-2.775-7.268-2.339-11.161c0.644-5.733,3.849-10.717,8.794-13.672   c1.511-0.902,2.436-2.532,2.436-4.292C81.308,235.202,80.383,233.572,78.872,232.67z M49.922,224.556h11.085   c1.301,4.724,3.772,8.979,7.211,12.406c-3.439,3.429-5.912,7.685-7.213,12.408H49.922V224.556z M322.088,315.052   c-35.075,6.586-81.861,10.213-131.738,10.213c-49.878,0-96.663-3.627-131.738-10.213c-34.254-6.433-45.38-13.543-47.962-16.689   l36.446-38.993h12.988c0.348,4.097,1.571,8.075,3.673,11.716c5.035,8.723,14.426,14.142,24.508,14.142   c2.464,0,4.917-0.327,7.29-0.964c3.261,12.029,14.326,20.946,27.304,20.946h0.005c12.976,0,24.04-8.917,27.301-20.946   c2.374,0.637,4.828,0.964,7.291,0.964c10.083,0,19.474-5.418,24.508-14.14c2.102-3.639,3.327-7.618,3.674-11.718h147.967   l36.446,38.993C367.468,301.509,356.342,308.619,322.088,315.052z"
   id="path22" />
	<path
   style="fill:#000000"
   d="M122.859,258.94c12.119,0,21.979-9.859,21.979-21.978c0-12.119-9.859-21.979-21.979-21.979   c-12.118,0-21.977,9.859-21.977,21.979C100.883,249.081,110.741,258.94,122.859,258.94z M122.859,224.983   c6.604,0,11.979,5.374,11.979,11.979c0,6.605-5.374,11.979-11.979,11.979c-6.604,0-11.977-5.373-11.977-11.979   C110.883,230.357,116.256,224.983,122.859,224.983z"
   id="path24" />
</g>
<g
   id="g28">
</g>
<g
   id="g30">
</g>
<g
   id="g32">
</g>
<g
   id="g34">
</g>
<g
   id="g36">
</g>
<g
   id="g38">
</g>
<g
   id="g40">
</g>
<g
   id="g42">
</g>
<g
   id="g44">
</g>
<g
   id="g46">
</g>
<g
   id="g48">
</g>
<g
   id="g50">
</g>
<g
   id="g52">
</g>
<g
   id="g54">
</g>
<g
   id="g56">
</g>
</svg>
